User Type,Username,Date,Text
,icek00l,2012-10-16T14:26Z,"V 10
A 3

Very quiet audio, you will have to turn the sound up to the max + open up an equalizer and boost all sliders up aswell if you want to hear anything.
Picture quality is perfect fwiw"
,icek00l,2012-10-16T14:38Z,"So here's the specs (didn't just want to moan like an ungrateful fool)..

Format                                    : MPEG-4
Format profile                          : Base Media
File size                                  : 1.40 GiB
Duration                                 : 1h 36mn
Overall bit rate mode               : Variable
Overall bit rate                        : 2 081 Kbps
Video
ID                          : 1
Format                   : AVC
Format/Info            : Advanced Video Codec
Format profile         : High@L4.0
Format settings, CABAC              : Yes
Format settings, ReFrames          : 4 frames
Codec ID                             : avc1
Codec ID/Info            : Advanced Video Coding
Duration                         : 1h 36mn
Bit rate                            : 1 982 Kbps
Maximum bit rate             : 9 440 Kbps
Width                               : 1 920 pixels
Height                               : 960 pixels
Display aspect ratio             : 2.000
Frame rate mode                 : Constant
Frame rate                          : 25.000 fps
Color space                         : YUV
Chroma subsampling            : 4:2:0
Bit depth                              : 8 bits
Scan type                             : Progressive
Bits/(Pixel*Frame)                : 0.043
Stream size                         : 1.33 GiB (95%)
Writing library    : x264 core 125 r2200 999b753
Encoding settings  : cabac=1 / ref=4 / deblock=1:0:0 / analyse=0x3:0x113 / me=hex / subme=7 / psy=1 / psy_rd=1.00:0.00 / mixed_ref=1 / me_range=16 / chroma_me=1 / trellis=1 / 8x8dct=1 / cqm=0 / deadzone=21,11 / fast_pskip=1 / chroma_qp_offset=-2 / threads=6 / lookahead_threads=1 / sliced_threads=0 / nr=0 / decimate=1 / interlaced=0 / bluray_compat=0 / constrained_intra=0 / bframes=8 / b_pyramid=2 / b_adapt=1 / b_bias=0 / direct=1 / weightb=1 / open_gop=0 / weightp=2 / keyint=250 / keyint_min=25 / scenecut=40 / intra_refresh=0 / rc_lookahead=40 / rc=2pass / mbtree=1 / bitrate=1982 / ratetol=1.0 / qcomp=0.60 / qpmin=10 / qpmax=51 / qpstep=4 / cplxblur=20.0 / qblur=0.5 / ip_ratio=1.40 / aq=1:1.00

Audio
ID                                       : 2
Format                                : AAC
Format/Info             : Advanced Audio Codec
Format profile                  : LC
Codec ID                         : 40
Duration                          : 1h 36mn
Bit rate mode                   : Variable
Bit rate                            : 96.0 Kbps
Maximum bit rate              : 129 Kbps
Channel(s)                       : 2 channels
Channel positions              : Front: L R
Sampling rate                   : 48.0 KHz
Compression mode            : Lossy
Stream size                       : 66.0 MiB (5%)
Language                          : English

As you can see, media info is reading the file as 25fps, but YIFY says 23.976, I don't want to disagree as MediaInfo could easily have bugs etc..
"
